{
  "source": "C:\\Users\\Peter\\Desktop\\stuff\\MIUN\\quantitative_research\\video_compression\\videos\\UVG\\Beauty_1920x1080_120fps_420_8bit_YUV.y4m",
  "output": "C:\\Users\\Peter\\Desktop\\stuff\\MIUN\\quantitative_research\\video_compression\\compressed_videos\\UVG\\hevc\\1\\Beauty_1920x1080_120fps_420_8bit_YUV_hevc.mp4",
  "codec": "hevc",
  "ok": "[yuv4mpegpipe @ 000001d1bc7366c0] Stream #0: not enough frames to estimate rate; consider increasing probesize\nInput #0, yuv4mpegpipe, from 'C:\\Users\\Peter\\Desktop\\stuff\\MIUN\\quantitative_research\\video_compression\\videos\\UVG\\Beauty_1920x1080_120fps_420_8bit_YUV.y4m':\n  Duration: 00:00:05.00, start: 0.000000, bitrate: 2985989 kb/s\n  Stream #0:0: Video: rawvideo (I420 / 0x30323449), yuv420p(progressive), 1920x1080, 120 fps, 120 tbr, 120 tbn\n[out#0/mp4 @ 000001d1bc73b640] Codec AVOption b:a (set bitrate (in bits/s)) has not been used for any stream. The most likely reason is either wrong type (e.g. a video option with no video streams) or that it is a private option of some decoder which was not actually used for any stream.\nStream mapping:\n  Stream #0:0 -> #0:0 (rawvideo (native) -> hevc (libx265))\nPress [q] to stop, [?] for help\n[libx265 @ 000001d1bc73cac0] Unknown option: \"aq-mode.\nx265 [info]: HEVC encoder version 4.1+190-8f11c33ac\nx265 [info]: build info [Windows][GCC 15.1.0][64 bit] 10bit\nx265 [info]: using cpu capabilities: MMX2 SSE2Fast LZCNT SSSE3 SSE4.2 AVX FMA3 BMI2 AVX2\nx265 [info]: Main 10 profile, Level-5 (Main tier)\nx265 [info]: Thread pool created using 12 threads\nx265 [info]: Slices                              : 1\nx265 [info]: frame threads / pool features       : 3 / wpp(17 rows)\nx265 [info]: Coding QT: max CU size, min CU size : 64 / 8\nx265 [info]: Residual QT: max TU size, max depth : 32 / 1 inter / 1 intra\nx265 [info]: ME / range / subpel / merge         : star / 57 / 3 / 3\nx265 [info]: Keyframe min / max / scenecut / bias  : 25 / 250 / 40 / 5.00 \nx265 [info]: Lookahead / bframes / badapt        : 25 / 4 / 2\nx265 [info]: b-pyramid / weightp / weightb       : 1 / 1 / 0\nx265 [info]: References / ref-limit  cu / depth  : 4 / on / on\nx265 [info]: AQ: mode / str / qg-size / cu-tree  : 2 / 1.0 / 32 / 1\nx265 [info]: Rate Control / qCompress            : ABR-1000 kbps / 0.60\nx265 [info]: VBV/HRD buffer / max-rate / init    : 1000 / 1000 / 0.750\nx265 [info]: tools: rect limit-modes rd=4 psy-rd=2.00 rdoq=2 psy-rdoq=1.00\nx265 [info]: tools: rskip mode=1 signhide tmvp strong-intra-smoothing lslices=4\nx265 [info]: tools: deblock sao dhdr10-info\nOutput #0, mp4, to 'C:\\Users\\Peter\\Desktop\\stuff\\MIUN\\quantitative_research\\video_compression\\compressed_videos\\UVG\\hevc\\1\\Beauty_1920x1080_120fps_420_8bit_YUV_hevc.mp4':\n  Metadata:\n    encoder         : Lavf62.3.100\n  Stream #0:0: Video: hevc (hev1 / 0x31766568), yuv420p10le(tv, progressive), 1920x1080, q=2-31, 1000 kb/s, 120 fps, 15360 tbn\n    Metadata:\n      encoder         : Lavc62.11.100 libx265\n    Side data:\n      cpb: bitrate max/min/avg: 1000000/0/1000000 buffer size: 1000000 vbv_delay: N/A\nframe=    0 fps=0.0 q=0.0 size=       0KiB time=N/A bitrate=N/A speed=N/A elapsed=0:00:00.52    \nframe=    9 fps=8.7 q=51.0 size=       0KiB time=00:00:00.05 bitrate=   6.0kbits/s speed=0.0566x elapsed=0:00:01.03    \nframe=   18 fps= 12 q=51.0 size=       0KiB time=00:00:00.13 bitrate=   2.6kbits/s speed=0.0858x elapsed=0:00:01.55    \nframe=   26 fps= 13 q=49.8 size=       0KiB time=00:00:00.20 bitrate=   1.8kbits/s speed=0.0968x elapsed=0:00:02.06    \nframe=   34 fps= 13 q=47.9 size=       0KiB time=00:00:00.26 bitrate=   1.3kbits/s speed=0.103x elapsed=0:00:02.57    \nframe=   42 fps= 14 q=43.1 size=       0KiB time=00:00:00.33 bitrate=   1.1kbits/s speed=0.108x elapsed=0:00:03.09    \nframe=   50 fps= 14 q=47.7 size=       0KiB time=00:00:00.40 bitrate=   0.9kbits/s speed=0.111x elapsed=0:00:03.61    \nframe=   58 fps= 14 q=46.6 size=       0KiB time=00:00:00.46 bitrate=   0.8kbits/s speed=0.113x elapsed=0:00:04.12    \nframe=   65 fps= 14 q=46.8 size=       0KiB time=00:00:00.52 bitrate=   0.7kbits/s speed=0.113x elapsed=0:00:04.63    \nframe=   72 fps= 14 q=42.6 size=       0KiB time=00:00:00.58 bitrate=   0.6kbits/s speed=0.113x elapsed=0:00:05.15    \nframe=   79 fps= 14 q=46.4 size=       0KiB time=00:00:00.64 bitrate=   0.5kbits/s speed=0.113x elapsed=0:00:05.68    \nframe=   85 fps= 14 q=46.6 size=       0KiB time=00:00:00.69 bitrate=   0.5kbits/s speed=0.112x elapsed=0:00:06.18    \nframe=   91 fps= 14 q=46.7 size=       0KiB time=00:00:00.74 bitrate=   0.5kbits/s speed=0.111x elapsed=0:00:06.71    \nframe=   97 fps= 13 q=44.4 size=       0KiB time=00:00:00.79 bitrate=   0.4kbits/s speed=0.11x elapsed=0:00:07.21    \nframe=  104 fps= 13 q=47.6 size=       0KiB time=00:00:00.85 bitrate=   0.4kbits/s speed=0.11x elapsed=0:00:07.73    \nframe=  111 fps= 13 q=47.8 size=       0KiB time=00:00:00.90 bitrate=   0.4kbits/s speed=0.11x elapsed=0:00:08.25    \nframe=  118 fps= 13 q=46.4 size=       0KiB time=00:00:00.96 bitrate=   0.4kbits/s speed=0.11x elapsed=0:00:08.76    \nframe=  124 fps= 13 q=47.8 size=       0KiB time=00:00:01.01 bitrate=   0.3kbits/s speed=0.11x elapsed=0:00:09.28    \nframe=  132 fps= 13 q=44.0 size=       0KiB time=00:00:01.08 bitrate=   0.3kbits/s speed=0.11x elapsed=0:00:09.80    \nframe=  138 fps= 13 q=46.2 size=       0KiB time=00:00:01.13 bitrate=   0.3kbits/s speed=0.11x elapsed=0:00:10.32    \nframe=  145 fps= 13 q=47.8 size=       0KiB time=00:00:01.19 bitrate=   0.3kbits/s speed=0.11x elapsed=0:00:10.85    \nframe=  152 fps= 13 q=43.2 size=       0KiB time=00:00:01.25 bitrate=   0.3kbits/s speed=0.11x elapsed=0:00:11.36    \nframe=  159 fps= 13 q=46.8 size=       0KiB time=00:00:01.30 bitrate=   0.3kbits/s speed=0.11x elapsed=0:00:11.88    \nframe=  166 fps= 13 q=46.7 size=       0KiB time=00:00:01.36 bitrate=   0.3kbits/s speed=0.11x elapsed=0:00:12.39    \nframe=  173 fps= 13 q=45.6 size=       0KiB time=00:00:01.42 bitrate=   0.2kbits/s speed=0.11x elapsed=0:00:12.91    \nframe=  180 fps= 13 q=46.8 size=       0KiB time=00:00:01.48 bitrate=   0.2kbits/s speed=0.11x elapsed=0:00:13.42    \nframe=  186 fps= 13 q=46.8 size=       0KiB time=00:00:01.53 bitrate=   0.2kbits/s speed=0.11x elapsed=0:00:13.94    \nframe=  192 fps= 13 q=43.8 size=       0KiB time=00:00:01.58 bitrate=   0.2kbits/s speed=0.11x elapsed=0:00:14.45    \nframe=  199 fps= 13 q=47.7 size=       0KiB time=00:00:01.64 bitrate=   0.2kbits/s speed=0.11x elapsed=0:00:14.96    \nframe=  205 fps= 13 q=46.8 size=       0KiB time=00:00:01.69 bitrate=   0.2kbits/s speed=0.109x elapsed=0:00:15.49    \nframe=  212 fps= 13 q=43.8 size=       0KiB time=00:00:01.75 bitrate=   0.2kbits/s speed=0.109x elapsed=0:00:16.00    \nframe=  218 fps= 13 q=46.0 size=       0KiB time=00:00:01.80 bitrate=   0.2kbits/s speed=0.109x elapsed=0:00:16.52    \nframe=  225 fps= 13 q=47.4 size=       0KiB time=00:00:01.85 bitrate=   0.2kbits/s speed=0.109x elapsed=0:00:17.04    \nframe=  234 fps= 13 q=47.9 size=       0KiB time=00:00:01.93 bitrate=   0.2kbits/s speed=0.11x elapsed=0:00:17.56    \nframe=  243 fps= 13 q=46.3 size=       0KiB time=00:00:02.00 bitrate=   0.2kbits/s speed=0.111x elapsed=0:00:18.08    \nframe=  253 fps= 14 q=46.8 size=       0KiB time=00:00:02.09 bitrate=   0.2kbits/s speed=0.112x elapsed=0:00:18.59    \nframe=  262 fps= 14 q=43.8 size=       0KiB time=00:00:02.16 bitrate=   0.2kbits/s speed=0.113x elapsed=0:00:19.11    \nframe=  270 fps= 14 q=47.8 size=     256KiB time=00:00:02.23 bitrate= 939.2kbits/s speed=0.114x elapsed=0:00:19.63    \nframe=  279 fps= 14 q=47.8 size=     256KiB time=00:00:02.30 bitrate= 908.7kbits/s speed=0.115x elapsed=0:00:20.14    \nframe=  285 fps= 14 q=47.8 size=     256KiB time=00:00:02.35 bitrate= 889.4kbits/s speed=0.114x elapsed=0:00:20.66    \nframe=  294 fps= 14 q=47.7 size=     256KiB time=00:00:02.43 bitrate= 862.0kbits/s speed=0.115x elapsed=0:00:21.17    \nframe=  303 fps= 14 q=46.5 size=     256KiB time=00:00:02.50 bitrate= 836.2kbits/s speed=0.116x elapsed=0:00:21.69    \nframe=  311 fps= 14 q=47.9 size=     256KiB time=00:00:02.57 bitrate= 814.6kbits/s speed=0.116x elapsed=0:00:22.20    \nframe=  319 fps= 14 q=47.6 size=     256KiB time=00:00:02.64 bitrate= 794.0kbits/s speed=0.116x elapsed=0:00:22.71    \nframe=  326 fps= 14 q=47.9 size=     256KiB time=00:00:02.70 bitrate= 776.9kbits/s speed=0.116x elapsed=0:00:23.23    \nframe=  335 fps= 14 q=47.8 size=     256KiB time=00:00:02.77 bitrate= 755.9kbits/s speed=0.117x elapsed=0:00:23.75    \nframe=  344 fps= 14 q=47.7 size=     256KiB time=00:00:02.85 bitrate= 736.0kbits/s speed=0.117x elapsed=0:00:24.26    \nframe=  352 fps= 14 q=43.6 size=     256KiB time=00:00:02.91 bitrate= 719.1kbits/s speed=0.118x elapsed=0:00:24.78    \nframe=  361 fps= 14 q=47.9 size=     256KiB time=00:00:02.99 bitrate= 701.1kbits/s speed=0.118x elapsed=0:00:25.30    \nframe=  371 fps= 14 q=46.9 size=     256KiB time=00:00:03.07 bitrate= 682.1kbits/s speed=0.119x elapsed=0:00:25.81    \nframe=  380 fps= 14 q=46.3 size=     256KiB time=00:00:03.15 bitrate= 665.9kbits/s speed=0.12x elapsed=0:00:26.33    \nframe=  389 fps= 14 q=47.6 size=     256KiB time=00:00:03.22 bitrate= 650.4kbits/s speed=0.12x elapsed=0:00:26.85    \nframe=  397 fps= 15 q=43.2 size=     256KiB time=00:00:03.29 bitrate= 637.2kbits/s speed=0.12x elapsed=0:00:27.36    \nframe=  407 fps= 15 q=43.4 size=     256KiB time=00:00:03.37 bitrate= 621.5kbits/s speed=0.121x elapsed=0:00:27.88    \nframe=  415 fps= 15 q=47.4 size=     256KiB time=00:00:03.44 bitrate= 609.4kbits/s speed=0.121x elapsed=0:00:28.38    \nframe=  425 fps= 15 q=47.7 size=     256KiB time=00:00:03.52 bitrate= 595.0kbits/s speed=0.122x elapsed=0:00:28.90    \nframe=  434 fps= 15 q=46.9 size=     256KiB time=00:00:03.60 bitrate= 582.6kbits/s speed=0.122x elapsed=0:00:29.42    \nframe=  443 fps= 15 q=45.4 size=     256KiB time=00:00:03.67 bitrate= 570.7kbits/s speed=0.123x elapsed=0:00:29.94    \nframe=  451 fps= 15 q=47.5 size=     256KiB time=00:00:03.74 bitrate= 560.6kbits/s speed=0.123x elapsed=0:00:30.45    \nframe=  460 fps= 15 q=47.2 size=     256KiB time=00:00:03.81 bitrate= 549.6kbits/s speed=0.123x elapsed=0:00:30.97    \nframe=  470 fps= 15 q=46.8 size=     256KiB time=00:00:03.90 bitrate= 537.8kbits/s speed=0.124x elapsed=0:00:31.48    \nframe=  479 fps= 15 q=47.3 size=     256KiB time=00:00:03.97 bitrate= 527.7kbits/s speed=0.124x elapsed=0:00:32.00    \nframe=  488 fps= 15 q=45.8 size=     256KiB time=00:00:04.05 bitrate= 517.9kbits/s speed=0.125x elapsed=0:00:32.52    \nframe=  497 fps= 15 q=42.0 size=     256KiB time=00:00:04.12 bitrate= 508.5kbits/s speed=0.125x elapsed=0:00:33.03    \nframe=  508 fps= 15 q=46.1 size=     256KiB time=00:00:04.21 bitrate= 497.4kbits/s speed=0.126x elapsed=0:00:33.55    \nframe=  518 fps= 15 q=45.8 size=     512KiB time=00:00:04.30 bitrate= 975.5kbits/s speed=0.126x elapsed=0:00:34.05    \nframe=  528 fps= 15 q=46.2 size=     512KiB time=00:00:04.38 bitrate= 957.0kbits/s speed=0.127x elapsed=0:00:34.58    \nframe=  537 fps= 15 q=43.4 size=     512KiB time=00:00:04.45 bitrate= 940.9kbits/s speed=0.127x elapsed=0:00:35.09    \nframe=  546 fps= 15 q=47.5 size=     512KiB time=00:00:04.53 bitrate= 925.3kbits/s speed=0.127x elapsed=0:00:35.60    \nframe=  555 fps= 15 q=47.7 size=     512KiB time=00:00:04.60 bitrate= 910.2kbits/s speed=0.128x elapsed=0:00:36.13    \nframe=  564 fps= 15 q=47.4 size=     512KiB time=00:00:04.68 bitrate= 895.7kbits/s speed=0.128x elapsed=0:00:36.64    \nframe=  573 fps= 15 q=45.1 size=     512KiB time=00:00:04.75 bitrate= 881.5kbits/s speed=0.128x elapsed=0:00:37.16    \nframe=  580 fps= 15 q=46.5 size=     512KiB time=00:00:04.81 bitrate= 870.9kbits/s speed=0.128x elapsed=0:00:37.66    \nframe=  589 fps= 15 q=45.6 size=     512KiB time=00:00:04.89 bitrate= 857.5kbits/s speed=0.128x elapsed=0:00:38.19    \nframe=  596 fps= 15 q=46.5 size=     512KiB time=00:00:04.95 bitrate= 847.4kbits/s speed=0.128x elapsed=0:00:38.70    \n[mp4 @ 000001d1bc73b780] Starting second pass: moving the moov atom to the beginning of the file\n[out#0/mp4 @ 000001d1bc73b640] video:600KiB audio:0KiB subtitle:0KiB other streams:0KiB global headers:2KiB muxing overhead: 1.664055%\nframe=  600 fps= 15 q=46.9 Lsize=     610KiB time=00:00:04.98 bitrate=1003.0kbits/s speed=0.128x elapsed=0:00:38.82    \nx265 [info]: frame I:      3, Avg QP:44.91  kb/s: 4177.60 \nx265 [info]: frame P:    118, Avg QP:43.87  kb/s: 2423.53 \nx265 [info]: frame B:    479, Avg QP:47.16  kb/s: 603.73  \nx265 [info]: Weighted P-Frames: Y:0.0% UV:0.0%\n\nencoded 600 frames in 38.75s (15.48 fps), 979.49 kb/s, Avg QP:46.50\n",
  "seconds": 38.93284010887146,
  "probe_out": {}
}